<?xml version="1.0" standalone="no"?>
<!DOCTYPE svg PUBLIC "-//W3C//DTD SVG 1.1//EN" "http://www.w3.org/Graphics/SVG/1.1/DTD/svg11.dtd">
<svg width="100%" height="100%" viewBox="0 0 200 200" version="1.1" xmlns="http://www.w3.org/2000/svg" xmlns:xlink="http://www.w3.org/1999/xlink" xml:space="preserve" style="fill-rule:evenodd;clip-rule:evenodd;stroke-linejoin:round;stroke-miterlimit:1.41421;">
    <g transform="matrix(2.53833,-2.74225e-17,-2.74225e-17,2.65029,-48.4284,-58.7641)">
        <path d="M58.475,31.606C74.782,31.606 88.022,44.286 88.022,59.904C88.022,75.523 74.782,88.203 58.475,88.203C42.167,88.203 28.928,75.523 28.928,59.904C28.928,44.286 42.167,31.606 58.475,31.606ZM58.475,36.962C71.695,36.962 82.429,47.242 82.429,59.904C82.429,72.567 71.695,82.847 58.475,82.847C45.254,82.847 34.521,72.567 34.521,59.904C34.521,47.242 45.254,36.962 58.475,36.962Z" style="fill:rgb(255,28,0);"/>
    </g>
    <path d="M98.797,100.861L75.469,127.169L48.877,127.192L91.126,100.868L98.797,100.861ZM101.261,100.859L108.851,100.852L151.146,127.103L124.515,127.126L101.261,100.859Z" style="fill:rgb(255,28,0);"/>
</svg>
